<svg width="50" height="49" viewBox="0 0 50 49" fill="none" xmlns="http://www.w3.org/2000/svg">
<path fill-rule="evenodd" clip-rule="evenodd" d="M10.9375 2C9.7639 2 8.8125 2.9514 8.8125 4.125V38.5C8.8125 39.6736 9.7639 40.625 10.9375 40.625H45.3125C46.4861 40.625 47.4375 39.6736 47.4375 38.5V4.125C47.4375 2.9514 46.4861 2 45.3125 2H10.9375ZM6.8125 4.125C6.8125 1.84683 8.65932 0 10.9375 0H45.3125C47.5907 0 49.4375 1.84683 49.4375 4.125V38.5C49.4375 40.7782 47.5907 42.625 45.3125 42.625H10.9375C8.65932 42.625 6.8125 40.7782 6.8125 38.5V4.125Z" fill="#7D7D7D"/>
<path fill-rule="evenodd" clip-rule="evenodd" d="M1.5625 6.25C2.11478 6.25 2.5625 6.69772 2.5625 7.25V44.75C2.5625 45.3136 2.78638 45.8541 3.1849 46.2526C3.58341 46.6511 4.12392 46.875 4.6875 46.875H42.1875C42.7398 46.875 43.1875 47.3227 43.1875 47.875C43.1875 48.4273 42.7398 48.875 42.1875 48.875H4.6875C3.59348 48.875 2.54427 48.4404 1.77068 47.6668C0.997097 46.8932 0.5625 45.844 0.5625 44.75V7.25C0.5625 6.69772 1.01022 6.25 1.5625 6.25Z" fill="#7D7D7D"/>
<path fill-rule="evenodd" clip-rule="evenodd" d="M17.9688 12.5C18.4412 12.5 18.8942 12.6877 19.2283 13.0217C19.5623 13.3558 19.75 13.8088 19.75 14.2813C19.75 14.6333 19.6456 14.9775 19.4501 15.2704C19.2546 15.5632 18.9767 15.7915 18.6515 15.9265C18.3263 16.0614 17.9684 16.097 17.623 16.0286C17.2776 15.9603 16.9602 15.7911 16.7109 15.5425C16.4616 15.2938 16.2916 14.9769 16.2223 14.6317C16.153 14.2864 16.1876 13.9284 16.3217 13.6029C16.4558 13.2773 16.6834 12.9988 16.9757 12.8025C17.268 12.6062 17.6119 12.5009 17.964 12.5L17.9688 12.5Z" fill="#7D7D7D"/>
<path fill-rule="evenodd" clip-rule="evenodd" d="M31.6499 18.6868C32.0202 18.4947 32.4319 18.3961 32.8491 18.3995C33.2662 18.4029 33.6763 18.5081 34.0435 18.7061C34.4107 18.9041 34.724 19.1888 34.956 19.5355L34.9585 19.5391L43.021 31.6974C43.2246 32.0044 43.2429 32.3985 43.0687 32.723C42.8945 33.0476 42.5559 33.2501 42.1876 33.2501H17.2334C16.8645 33.2501 16.5256 33.047 16.3516 32.7217C16.1776 32.3965 16.1968 32.0018 16.4016 31.695L21.7056 23.7474C21.9025 23.4522 22.1588 23.2007 22.4578 23.0097C22.757 22.8185 23.0926 22.6916 23.4434 22.637C23.7942 22.5824 24.1525 22.6013 24.4956 22.6924C24.8387 22.7836 25.1591 22.9451 25.4366 23.1666L27.1816 24.5618L30.724 19.5013L30.7255 19.4992C30.963 19.1573 31.2803 18.8784 31.6499 18.6868ZM32.8329 20.3994C32.7416 20.3987 32.6515 20.4203 32.5704 20.4623C32.4894 20.5043 32.4198 20.5655 32.3678 20.6406L32.3651 20.6444L28.2089 26.5819C28.0504 26.8082 27.8054 26.9589 27.532 26.9983C27.2585 27.0376 26.981 26.962 26.7652 26.7895L24.1886 24.7295C24.1278 24.681 24.0571 24.6453 23.982 24.6254C23.9067 24.6054 23.8281 24.6012 23.7511 24.6132C23.674 24.6252 23.6004 24.653 23.5347 24.695C23.469 24.737 23.4128 24.7921 23.3696 24.857L19.103 31.2501H40.3246L33.2941 20.6481L33.2932 20.6468C33.2425 20.5715 33.1743 20.5096 33.0943 20.4665C33.014 20.4232 32.9242 20.4002 32.8329 20.3994Z" fill="#7D7D7D"/>
</svg>
